# File created by Blade
# Date/Time:  Tue Jan 27 18:09:10 2015
# Frame Rate: 120.000 fps
#------------------------------------------------------
:FULLY-SPECIFIED
:DEGREES
2310
root -1.425032 31.848236 -6.621183 5.922960 7.638132 2.940711
Spine -7.022682 -11.002110 -4.021488
Head -0.227486 -49.964188 2.808636
LeftShoulder -12.947612 16.247090 3.043104
LeftArm 28.763398 44.091952 -63.902007
LeftForeArm -2.054148 -0.000000 15.823115
LeftHand -10.943696 -0.000000 -5.551169
LeftHandThumb1 -26.253704 0.000000 33.147579
RightShoulder -8.245603 14.306921 -31.814901
RightArm 11.781113 74.039261 43.492348
RightForeArm 35.941247 0.000000 117.350138
RightHand -1.182604 -0.000000 17.906135
RightHandThumb1 -24.326973 -0.000000 -32.862282
LeftUpLeg -1.960644 -1.462845 -0.656906
LeftLeg 1.366828 -0.000000 -0.000000
LeftFoot -18.255051 16.396682 -24.794415
LeftToeBase 8.746648 -0.000000 -0.000000
RightUpLeg 0.892291 -4.657114 -3.364225
RightLeg -2.866699 -0.000000 0.000000
RightFoot -15.407123 -13.693524 10.041587
RightToeBase 5.140831 -0.000000 -0.000000
2311
root -1.420400 31.848164 -6.619102 5.920930 7.616388 2.938781
Spine -7.012051 -11.016676 -4.055092
Head -0.271297 -49.988164 2.938949
LeftShoulder -12.937505 16.233234 3.067543
LeftArm 28.741115 44.122801 -63.932022
LeftForeArm -2.190128 -0.000000 15.826175
LeftHand -10.984886 0.000000 -5.383728
LeftHandThumb1 -26.253704 0.000000 33.147579
RightShoulder -8.249427 14.300965 -31.888772
RightArm 11.555040 73.657866 43.129322
RightForeArm 35.271785 -0.000000 114.894490
RightHand -1.481453 0.000000 17.402953
RightHandThumb1 -24.326973 -0.000000 -32.862282
LeftUpLeg -1.951913 -1.429814 -0.666881
LeftLeg 1.365257 -0.000000 -0.000000
LeftFoot -18.259430 16.383551 -24.801568
LeftToeBase 8.738842 -0.000000 -0.000000
RightUpLeg 0.888856 -4.650213 -3.371245
RightLeg -2.854758 -0.000000 0.000000
RightFoot -15.409286 -13.692246 10.025423
RightToeBase 5.042535 -0.000000 -0.000000
2312
root -1.415392 31.848188 -6.617396 5.921885 7.590654 2.937890
Spine -7.001895 -11.030549 -4.091212
Head -0.321039 -49.989436 3.082192
LeftShoulder -12.939166 16.243865 3.089130
LeftArm 28.732652 44.105672 -63.959045
LeftForeArm -2.163878 -0.000000 15.832815
LeftHand -10.979404 -0.000000 -5.332185
LeftHandThumb1 -26.253704 0.000000 33.147579
RightShoulder -8.259651 14.285566 -32.014741
RightArm 11.437655 73.349026 42.986958
RightForeArm 34.848949 -0.000000 112.325682
RightHand -1.864536 -0.000000 16.746039
RightHandThumb1 -24.326973 -0.000000 -32.862282
LeftUpLeg -1.943708 -1.414055 -0.677244
LeftLeg 1.358744 -0.000000 -0.000000
LeftFoot -18.256229 16.398392 -24.766092
LeftToeBase 8.699318 -0.000000 -0.000000
RightUpLeg 0.878729 -4.646739 -3.380741
RightLeg -2.837818 -0.000000 0.000000
RightFoot -15.415315 -13.671024 10.040558
RightToeBase 5.024439 -0.000000 -0.000000
2313
root -1.410736 31.847745 -6.615973 5.922955 7.569028 2.928827
Spine -6.999248 -11.041726 -4.113014
Head -0.350230 -49.970271 3.197047
LeftShoulder -12.931975 16.281276 3.102821
LeftArm 28.752709 44.050131 -63.964773
LeftForeArm -2.042515 0.000000 15.820965
LeftHand -10.918151 -0.000000 -5.466360
LeftHandThumb1 -26.253704 0.000000 33.147579
RightShoulder -8.241422 14.334290 -32.137596
RightArm 11.042077 73.010654 42.491774
RightForeArm 34.384057 -0.000000 109.694551
RightHand -2.262339 -0.000000 16.122023
RightHandThumb1 -24.326973 -0.000000 -32.862282
LeftUpLeg -1.938681 -1.414257 -0.678202
LeftLeg 1.358666 -0.000000 -0.000000
LeftFoot -18.280194 16.406888 -24.781815
LeftToeBase 8.741469 -0.000000 -0.000000
RightUpLeg 0.873910 -4.628048 -3.383944
RightLeg -2.831848 -0.000000 0.000000
RightFoot -15.411429 -13.629637 10.145514
RightToeBase 4.989678 -0.000000 -0.000000
2314
root -1.407079 31.847934 -6.614659 5.926857 7.543815 2.917203
Spine -6.986611 -11.066689 -4.147135
Head -0.431935 -49.907522 3.372079
LeftShoulder -12.930866 16.264866 3.134609
LeftArm 28.699768 44.037766 -64.017637
LeftForeArm -2.043776 -0.000000 15.826458
LeftHand -10.934422 -0.000000 -5.337439
LeftHandThumb1 -26.253704 0.000000 33.147579
RightShoulder -8.229404 14.349866 -32.229495
RightArm 10.822617 72.682838 42.144356
RightForeArm 33.923962 -0.000000 106.972678
RightHand -2.524008 -0.000000 15.613993
RightHandThumb1 -24.326973 -0.000000 -32.862282
LeftUpLeg -1.932701 -1.409718 -0.674139
LeftLeg 1.347277 -0.000000 -0.000000
LeftFoot -18.288516 16.431446 -24.765489
LeftToeBase 8.718468 -0.000000 -0.000000
RightUpLeg 0.858725 -4.620561 -3.379912
RightLeg -2.811939 -0.000000 0.000000
RightFoot -15.417916 -13.641453 10.054479
RightToeBase 5.063261 -0.000000 -0.000000
2315
root -1.402834 31.848218 -6.613505 5.933492 7.511001 2.909289
Spine -6.986198 -11.078858 -4.174189
Head -0.484451 -49.810645 3.500931
LeftShoulder -12.924111 16.279085 3.151244
LeftArm 28.669763 43.992299 -64.047845
LeftForeArm -2.006322 -0.000000 15.837261
LeftHand -10.936312 -0.000000 -5.285371
LeftHandThumb1 -26.253704 0.000000 33.147579
RightShoulder -8.245887 14.218234 -32.336946
RightArm 11.170119 72.451558 42.368812
RightForeArm 33.392086 -0.000000 104.185594
RightHand -2.832052 -0.000000 15.174180
RightHandThumb1 -24.326973 -0.000000 -32.862282
LeftUpLeg -1.935516 -1.391206 -0.675947
LeftLeg 1.351681 -0.000000 -0.000000
LeftFoot -18.315414 16.418490 -24.811435
LeftToeBase 8.763229 -0.000000 -0.000000
RightUpLeg 0.842209 -4.618968 -3.382365
RightLeg -2.801265 -0.000000 0.000000
RightFoot -15.409514 -13.603903 10.068838
RightToeBase 5.090252 -0.000000 -0.000000
2316
root -1.397827 31.848180 -6.612419 5.936849 7.473659 2.908132
Spine -6.978017 -11.104741 -4.216588
Head -0.554245 -49.686550 3.668560
LeftShoulder -12.941411 16.297068 3.169559
LeftArm 28.655468 43.942493 -64.063631
LeftForeArm -1.934138 -0.000000 15.834257
LeftHand -10.893947 -0.000000 -5.380470
LeftHandThumb1 -26.253704 0.000000 33.147579
RightShoulder -8.216711 14.212908 -32.440961
RightArm 11.138382 72.198994 42.222795
RightForeArm 32.977386 -0.000000 101.413304
RightHand -3.399374 -0.000000 14.539456
RightHandThumb1 -24.326973 -0.000000 -32.862282
LeftUpLeg -1.931142 -1.363430 -0.690035
LeftLeg 1.350558 -0.000000 -0.000000
LeftFoot -18.318624 16.444837 -24.769511
LeftToeBase 8.724847 -0.000000 -0.000000
RightUpLeg 0.830735 -4.593334 -3.390641
RightLeg -2.789977 -0.000000 0.000000
RightFoot -15.413761 -13.613737 10.052161
RightToeBase 5.059268 -0.000000 -0.000000
2317
root -1.393217 31.848212 -6.610883 5.943234 7.437527 2.902567
Spine -6.976224 -11.123508 -4.258168
Head -0.610302 -49.534211 3.835007
LeftShoulder -12.937630 16.322365 3.197475
LeftArm 28.630436 43.884780 -64.101645
LeftForeArm -1.923165 -0.000000 15.831803
LeftHand -10.887768 -0.000000 -5.376305
LeftHandThumb1 -26.253704 0.000000 33.147579
RightShoulder -8.205489 14.227799 -32.573222
RightArm 11.113322 71.893721 42.098580
RightForeArm 32.365566 0.000000 98.595690
RightHand -3.943500 -0.000000 13.824907
RightHandThumb1 -24.326973 -0.000000 -32.862282
LeftUpLeg -1.922699 -1.369488 -0.695312
LeftLeg 1.334896 -0.000000 -0.000000
LeftFoot -18.328236 16.494215 -24.739992
LeftToeBase 8.730040 -0.000000 -0.000000
RightUpLeg 0.814165 -4.591284 -3.395840
RightLeg -2.775649 -0.000000 0.000000
RightFoot -15.410629 -13.582423 10.047263
RightToeBase 5.052449 -0.000000 -0.000000
2318
root -1.388951 31.848523 -6.610506 5.952374 7.393795 2.894914
Spine -6.969837 -11.141181 -4.299025
Head -0.707953 -49.368386 4.027521
LeftShoulder -12.946707 16.346506 3.217369
LeftArm 28.620856 43.833779 -64.117213
LeftForeArm -1.863894 0.000000 15.831225
LeftHand -10.884568 -0.000000 -5.356405
LeftHandThumb1 -26.253704 0.000000 33.147579
RightShoulder -8.201389 14.211190 -32.650955
RightArm 11.293011 71.623779 42.096595
RightForeArm 31.953830 0.000000 95.724086
RightHand -4.418715 -0.000000 13.181938
RightHandThumb1 -24.326973 -0.000000 -32.862282
LeftUpLeg -1.932849 -1.338278 -0.700977
LeftLeg 1.349045 -0.000000 -0.000000
LeftFoot -18.355748 16.497968 -24.760203
LeftToeBase 8.750176 -0.000000 -0.000000
RightUpLeg 0.789459 -4.581334 -3.397058
RightLeg -2.758714 -0.000000 0.000000
RightFoot -15.405521 -13.557809 10.040567
RightToeBase 5.065309 -0.000000 -0.000000
2319
root -1.384320 31.848780 -6.609441 5.957701 7.341963 2.892008
Spine -6.969345 -11.160827 -4.338259
Head -0.762697 -49.184409 4.176913
LeftShoulder -12.935163 16.353627 3.233913
LeftArm 28.586116 43.812216 -64.122868
LeftForeArm -1.928375 -0.000000 15.837555
LeftHand -10.919742 0.000000 -5.352397
LeftHandThumb1 -26.253704 0.000000 33.147579
RightShoulder -8.198805 14.206796 -32.759755
RightArm 11.525077 71.338764 42.185460
RightForeArm 31.611172 -0.000000 92.836250
RightHand -4.807850 -0.000000 12.499454
RightHandThumb1 -24.326973 -0.000000 -32.862282
LeftUpLeg -1.923750 -1.316096 -0.710504
LeftLeg 1.334586 -0.000000 -0.000000
LeftFoot -18.356725 16.518845 -24.756421
LeftToeBase 8.713788 -0.000000 -0.000000
RightUpLeg 0.775169 -4.551913 -3.407869
RightLeg -2.754799 -0.000000 0.000000
RightFoot -15.388584 -13.495610 10.144276
RightToeBase 4.969659 -0.000000 -0.000000
2320
root -1.380458 31.848908 -6.609440 5.965586 7.295435 2.883196
Spine -6.963744 -11.172534 -4.378904
Head -0.846453 -49.009764 4.374931
LeftShoulder -12.922464 16.363223 3.254185
LeftArm 28.589960 43.809116 -64.101923
LeftForeArm -1.981834 -0.000000 15.827171
LeftHand -10.921920 0.000000 -5.322898
LeftHandThumb1 -26.253704 0.000000 33.147579
RightShoulder -8.184778 14.308060 -32.858735
RightArm 11.433958 71.008644 41.930646
RightForeArm 31.297280 -0.000000 89.920814
RightHand -5.266295 -0.000000 12.047261
RightHandThumb1 -24.326973 -0.000000 -32.862282
LeftUpLeg -1.926127 -1.303159 -0.712174
LeftLeg 1.331419 -0.000000 -0.000000
LeftFoot -18.385268 16.552085 -24.758351
LeftToeBase 8.745597 -0.000000 -0.000000
RightUpLeg 0.754288 -4.525509 -3.407892
RightLeg -2.743444 -0.000000 0.000000
RightFoot -15.394631 -13.525613 10.042470
RightToeBase 5.066942 -0.000000 -0.000000
2321
root -1.375551 31.848992 -6.608789 5.974819 7.238731 2.890309
Spine -6.963718 -11.177921 -4.434732
Head -0.903791 -48.815651 4.522161
LeftShoulder -12.912203 16.373654 3.273115
LeftArm 28.582314 43.801017 -64.081911
LeftForeArm -1.975870 -0.000000 15.823357
LeftHand -10.905685 0.000000 -5.307925
LeftHandThumb1 -26.253704 0.000000 33.147579
RightShoulder -8.172396 14.405279 -32.952836
RightArm 11.415551 70.668419 41.745186
RightForeArm 30.926132 -0.000000 87.039813
RightHand -5.194343 -0.000000 11.592087
RightHandThumb1 -24.326973 -0.000000 -32.862282
LeftUpLeg -1.918699 -1.291475 -0.732860
LeftLeg 1.315203 -0.000000 -0.000000
LeftFoot -18.384652 16.599838 -24.737019
LeftToeBase 8.758406 -0.000000 -0.000000
RightUpLeg 0.740411 -4.473827 -3.427801
RightLeg -2.750011 -0.000000 0.000000
RightFoot -15.385507 -13.523108 10.045706
RightToeBase 5.072029 -0.000000 -0.000000
2322
root -1.372267 31.848541 -6.608875 5.980250 7.182738 2.879561
Spine -6.959615 -11.179076 -4.484605
Head -0.960791 -48.626033 4.695807
LeftShoulder -12.895101 16.381957 3.308160
LeftArm 28.556797 43.758304 -64.104925
LeftForeArm -1.913238 -0.000000 15.810130
LeftHand -10.888539 0.000000 -5.321322
LeftHandThumb1 -26.253704 0.000000 33.147579
RightShoulder -8.199041 14.546684 -33.016471
RightArm 11.562688 70.309906 41.679626
RightForeArm 30.515454 -0.000000 84.136552
RightHand -5.865771 -0.000000 11.005983
RightHandThumb1 -24.326973 -0.000000 -32.862282
LeftUpLeg -1.920227 -1.263615 -0.732455
LeftLeg 1.317859 -0.000000 -0.000000
LeftFoot -18.416951 16.596167 -24.795377
LeftToeBase 8.683563 -0.000000 -0.000000
RightUpLeg 0.722026 -4.447457 -3.427458
RightLeg -2.744411 -0.000000 0.000000
RightFoot -15.387321 -13.501405 10.034391
RightToeBase 5.090200 -0.000000 -0.000000
